<svg width="300" height="180" viewBox="0 0 300 180" fill="none" xmlns="http://www.w3.org/2000/svg">
  
  <defs>
    <clipPath id="fill-animation">
      <rect x="118" width="64">
        <animate attributeName="y" values="132; 48; 48; 132; 132" keyTimes="0; 0.5; 0.7; 0.95; 1" dur="10s" repeatCount="indefinite" />
        <animate attributeName="height" values="0; 84; 84; 0; 0" keyTimes="0; 0.5; 0.7; 0.95; 1" dur="10s" repeatCount="indefinite" />
      </rect>
    </clipPath>
  </defs>

  <rect width="300" height="180" fill="none" rx="8"/>

  <rect x="190" y="60" width="24" height="48" rx="4" fill="#928374"/> <rect x="190" y="68" width="16" height="32" fill="#1d2021"/>
  <rect x="110" y="40" width="80" height="100" rx="4" fill="#928374"/> <rect x="118" y="48" width="64" height="84" fill="#282828"/> <rect x="135" y="-20" width="8" height="8" fill="#6f4e37">
    <animate attributeName="y" from="-20" to="125" dur="1.5s" begin="0s" repeatCount="indefinite" calcMode="linear"/>
  </rect>

  <rect x="146" y="-20" width="8" height="8" fill="#503019">
    <animate attributeName="y" from="-20" to="125" dur="0.9s" begin="0.2s" repeatCount="indefinite" calcMode="linear"/>
  </rect>

  <rect x="157" y="-20" width="8" height="8" fill="#6f4e37">
    <animate attributeName="y" from="-20" to="125" dur="1.2s" begin="0.5s" repeatCount="indefinite" calcMode="linear"/>
  </rect>

  <path d="M110 44C110 41.7909 111.791 40 114 40H186C188.209 40 190 41.7909 190 44V48H110V44Z" fill="#928374"/>

  <g clip-path="url(#fill-animation)">
    <rect x="118" y="90" width="64" height="42" fill="#2c1c12"/> 
    <rect x="118" y="65" width="64" height="25" fill="#6f4e37"/> 
    <rect x="118" y="48" width="64" height="17" fill="#a67b5b"/> 
  </g>
  
  <rect x="110" y="132" width="80" height="8" rx="4" fill="#928374"/>

  <text x="150" y="165" fill="#928374" font-family="Courier New, monospace" font-size="10" text-anchor="middle">COMMIT FUEL</text>
</svg>
